<svg xmlns="http://www.w3.org/2000/svg" width="261.993" height="60.967" viewBox="0 0 261.993 60.967"><path d="M237.9,60.754a2.584,2.584,0,0,1-.9-.607,2.74,2.74,0,0,1-.594-.958,3.807,3.807,0,0,1,0-2.515,2.727,2.727,0,0,1,.594-.958,2.56,2.56,0,0,1,.9-.609,3.02,3.02,0,0,1,1.141-.212,2.542,2.542,0,0,1,.467.046,2.388,2.388,0,0,1,.477.143,2.147,2.147,0,0,1,.453.26,1.955,1.955,0,0,1,.387.4l-.9.8a1.2,1.2,0,0,0-.422-.35,1.305,1.305,0,0,0-.58-.122,1.35,1.35,0,0,0-.608.139,1.476,1.476,0,0,0-.485.386,1.853,1.853,0,0,0-.321.592,2.291,2.291,0,0,0-.116.744,2.261,2.261,0,0,0,.116.746,1.879,1.879,0,0,0,.317.587,1.475,1.475,0,0,0,.475.389,1.29,1.29,0,0,0,.585.138,1.219,1.219,0,0,0,.636-.164,1.276,1.276,0,0,0,.454-.457l.973.791a2.081,2.081,0,0,1-.852.76,2.449,2.449,0,0,1-1.061.244A3.012,3.012,0,0,1,237.9,60.754Zm-66.441,0a2.592,2.592,0,0,1-.9-.608,2.749,2.749,0,0,1-.594-.958,3.811,3.811,0,0,1,0-2.514,2.732,2.732,0,0,1,.594-.958,2.557,2.557,0,0,1,.9-.609,3.017,3.017,0,0,1,1.142-.212,2.554,2.554,0,0,1,.466.046,2.43,2.43,0,0,1,.478.143,2.145,2.145,0,0,1,.453.26,1.957,1.957,0,0,1,.388.4l-.9.8a1.191,1.191,0,0,0-.423-.351,1.31,1.31,0,0,0-.579-.122,1.351,1.351,0,0,0-.609.139,1.472,1.472,0,0,0-.485.386,1.838,1.838,0,0,0-.321.592,2.29,2.29,0,0,0-.116.743,2.263,2.263,0,0,0,.116.746,1.874,1.874,0,0,0,.317.587,1.478,1.478,0,0,0,.475.389,1.293,1.293,0,0,0,.587.138,1.216,1.216,0,0,0,.634-.164,1.273,1.273,0,0,0,.454-.457l.973.791a2.082,2.082,0,0,1-.853.76,2.45,2.45,0,0,1-1.06.244A3.023,3.023,0,0,1,171.459,60.755Zm73.35,0a2.613,2.613,0,0,1-.9-.609,2.738,2.738,0,0,1-.593-.958,3.807,3.807,0,0,1,0-2.515,2.743,2.743,0,0,1,.593-.958,2.585,2.585,0,0,1,.9-.607,3.176,3.176,0,0,1,2.284,0,2.605,2.605,0,0,1,.905.607,2.779,2.779,0,0,1,.594.958,3.834,3.834,0,0,1,0,2.515,2.774,2.774,0,0,1-.594.958,2.634,2.634,0,0,1-.905.609,3.2,3.2,0,0,1-2.284,0Zm.466-4.546a1.51,1.51,0,0,0-.518.387,1.724,1.724,0,0,0-.333.592,2.442,2.442,0,0,0,0,1.488,1.709,1.709,0,0,0,.333.589,1.494,1.494,0,0,0,.518.388,1.709,1.709,0,0,0,1.352,0,1.515,1.515,0,0,0,.52-.388,1.75,1.75,0,0,0,.331-.589,2.436,2.436,0,0,0,0-1.488,1.766,1.766,0,0,0-.331-.592,1.532,1.532,0,0,0-.52-.387,1.7,1.7,0,0,0-1.352,0Zm12.744,4.611V55.043h1.965a3.57,3.57,0,0,1,.776.081,1.68,1.68,0,0,1,.639.282,1.387,1.387,0,0,1,.432.537,1.984,1.984,0,0,1,.161.854,2.142,2.142,0,0,1-.15.849,1.378,1.378,0,0,1-.411.546,1.581,1.581,0,0,1-.62.29,3.309,3.309,0,0,1-.777.086h-.851V60.82Zm1.165-3.331h.777a1.343,1.343,0,0,0,.3-.033.734.734,0,0,0,.263-.109.573.573,0,0,0,.186-.212.723.723,0,0,0,.071-.338.627.627,0,0,0-.093-.356.658.658,0,0,0-.24-.208.978.978,0,0,0-.325-.093,3.233,3.233,0,0,0-.343-.021h-.6ZM216.738,60.82V55.043h1.748a4.607,4.607,0,0,1,1.205.154,2.707,2.707,0,0,1,1,.5,2.443,2.443,0,0,1,.675.9,3.252,3.252,0,0,1,.25,1.346,2.967,2.967,0,0,1-.242,1.237,2.64,2.64,0,0,1-.654.9,2.833,2.833,0,0,1-.948.552,3.423,3.423,0,0,1-1.128.187Zm1.165-1.176h.606a2.959,2.959,0,0,0,.751-.09,1.521,1.521,0,0,0,.6-.3,1.413,1.413,0,0,0,.4-.545,2.11,2.11,0,0,0,.145-.83,1.743,1.743,0,0,0-.145-.738,1.474,1.474,0,0,0-.392-.519,1.69,1.69,0,0,0-.579-.306,2.359,2.359,0,0,0-.7-.1H217.9Zm-7.616,1.176V55.041h3.592v1.176h-2.428v1.078h2.293v1.174h-2.293v1.176h2.563V60.82Zm-10.224,0V55.041h3.547v1.176h-2.381v1.176h2.2v1.174h-2.2V60.82Zm-9.1,0V56.168H189.45V55.043h4.182v1.125h-1.509V60.82Zm-13.973,0V55.041h3.592v1.176h-2.426v1.078h2.291v1.174h-2.291v1.176h2.561V60.82Zm9.3,0-1.1-2.309H184.6v2.309h-1.164V55.042h2.046a3.3,3.3,0,0,1,.765.086,1.716,1.716,0,0,1,.636.285,1.387,1.387,0,0,1,.433.538,1.985,1.985,0,0,1,.159.845,1.8,1.8,0,0,1-.29,1.04,1.291,1.291,0,0,1-.852.542l1.344,2.44Zm-1.68-3.386h.687c.106,0,.216,0,.332-.012a.962.962,0,0,0,.318-.073.555.555,0,0,0,.235-.192.635.635,0,0,0,.094-.366.66.66,0,0,0-.083-.351.554.554,0,0,0-.209-.2.8.8,0,0,0-.293-.093,1.972,1.972,0,0,0-.32-.026H184.6Zm69.629,3.386-1.1-2.308h-.575v2.308h-1.165V55.042h2.046a3.3,3.3,0,0,1,.765.086,1.717,1.717,0,0,1,.635.285,1.371,1.371,0,0,1,.432.538,1.956,1.956,0,0,1,.161.845,1.8,1.8,0,0,1-.29,1.04,1.3,1.3,0,0,1-.852.543l1.344,2.44Zm-1.68-3.386h.687c.1,0,.215,0,.333-.012a.968.968,0,0,0,.318-.073.559.559,0,0,0,.235-.192.634.634,0,0,0,.093-.366.646.646,0,0,0-.082-.351.542.542,0,0,0-.209-.2.794.794,0,0,0-.292-.093,1.964,1.964,0,0,0-.319-.026h-.763ZM227.1,60.819V55.042h1.972a4.64,4.64,0,0,1,.691.053,1.8,1.8,0,0,1,.623.212,1.235,1.235,0,0,1,.448.444,1.461,1.461,0,0,1,.172.76,1.277,1.277,0,0,1-.25.81,1.358,1.358,0,0,1-.662.462V57.8a1.45,1.45,0,0,1,.475.159,1.292,1.292,0,0,1,.366.3,1.272,1.272,0,0,1,.234.428,1.592,1.592,0,0,1,.084.521,1.5,1.5,0,0,1-.179.763,1.474,1.474,0,0,1-.465.494,1.908,1.908,0,0,1-.637.27,3.209,3.209,0,0,1-.706.08Zm1.164-1.077h1.046a1.176,1.176,0,0,0,.275-.034.669.669,0,0,0,.25-.112.686.686,0,0,0,.183-.212.677.677,0,0,0,.069-.32.544.544,0,0,0-.093-.33.617.617,0,0,0-.234-.192,1.145,1.145,0,0,0-.308-.088,1.921,1.921,0,0,0-.306-.026h-.882Zm0-2.391h.845a1.037,1.037,0,0,0,.263-.032.719.719,0,0,0,.238-.106.588.588,0,0,0,.167-.195.64.64,0,0,0,.064-.3.56.56,0,0,0-.071-.3.517.517,0,0,0-.183-.183.808.808,0,0,0-.255-.094,1.338,1.338,0,0,0-.275-.029h-.793Zm-22.044,3.468V55.041h1.165v5.778Zm-10.224,0V55.041h1.165v5.778ZM1,60.6c-.343-.024-.677-.054-1-.084V52.826a106.119,106.119,0,0,0,10.708.8,42.293,42.293,0,0,0,15.083-3.082c2.526-.989,6.821-2.4,11.575-3.87,2.728-.851,5.61-1.718,8.4-2.552l.154-.047c2.661-.793,5.236-1.547,7.511-2.207v4.184l-1.591.623C43.592,49.909,33.421,54,28.973,56.2a45.954,45.954,0,0,1-12.228,4.061,25.577,25.577,0,0,1-2.572.342c-2.556.154-4.868.22-6.953.22C4.869,60.819,2.805,60.735,1,60.6Zm33.666,0c.175-.11.374-.225.561-.341a117.481,117.481,0,0,1,18.2-9.072V60.6ZM60.89,50.741V33.765h201.1V50.741Zm187.627-4.8a2.347,2.347,0,0,0,1.064.887,3.537,3.537,0,0,0,1.414.287,3.05,3.05,0,0,0,1.051-.177,2.5,2.5,0,0,0,.857-.515,2.452,2.452,0,0,0,.575-.827,2.73,2.73,0,0,0,.214-1.1,2.191,2.191,0,0,0-.285-1.206,2.226,2.226,0,0,0-.707-.693,3.744,3.744,0,0,0-.92-.4,7.768,7.768,0,0,1-.921-.324,2.2,2.2,0,0,1-.708-.468,1.129,1.129,0,0,1-.283-.827,1.388,1.388,0,0,1,.07-.419,1.159,1.159,0,0,1,.247-.424,1.3,1.3,0,0,1,.466-.324,1.817,1.817,0,0,1,.729-.126,1.653,1.653,0,0,1,.822.2,1.458,1.458,0,0,1,.559.541l.855-.851a2.1,2.1,0,0,0-1.018-.78,3.9,3.9,0,0,0-1.218-.19,2.784,2.784,0,0,0-1.2.235,2.5,2.5,0,0,0-.816.579,2.2,2.2,0,0,0-.466.768,2.369,2.369,0,0,0-.148.789,2.586,2.586,0,0,0,.284,1.313,2.363,2.363,0,0,0,.709.772,3.547,3.547,0,0,0,.92.45c.333.107.639.22.921.335a2.42,2.42,0,0,1,.707.433.956.956,0,0,1,.285.748,1.258,1.258,0,0,1-.143.61,1.44,1.44,0,0,1-.368.444,1.6,1.6,0,0,1-.5.27,1.714,1.714,0,0,1-.537.089,2.024,2.024,0,0,1-.916-.221,1.793,1.793,0,0,1-.729-.689Zm-35.136-7.4a3.841,3.841,0,0,0-1.276.94,4.412,4.412,0,0,0-.832,1.415,5.267,5.267,0,0,0,0,3.523,4.4,4.4,0,0,0,.832,1.412,3.82,3.82,0,0,0,1.276.941,4.1,4.1,0,0,0,3.267,0,3.83,3.83,0,0,0,1.278-.941,4.425,4.425,0,0,0,.833-1.412,5.283,5.283,0,0,0,0-3.523,4.438,4.438,0,0,0-.833-1.415,3.827,3.827,0,0,0-2.91-1.28A3.894,3.894,0,0,0,213.38,38.542Zm-13.923,7.4a2.354,2.354,0,0,0,1.063.887,3.541,3.541,0,0,0,1.414.287,3.061,3.061,0,0,0,1.053-.177,2.513,2.513,0,0,0,.856-.515,2.445,2.445,0,0,0,.574-.827,2.708,2.708,0,0,0,.215-1.1,2.205,2.205,0,0,0-.285-1.206,2.245,2.245,0,0,0-.707-.693,3.751,3.751,0,0,0-.922-.4,7.844,7.844,0,0,1-.92-.324,2.2,2.2,0,0,1-.707-.468,1.125,1.125,0,0,1-.284-.827,1.4,1.4,0,0,1,.071-.419,1.138,1.138,0,0,1,.247-.424,1.3,1.3,0,0,1,.464-.324,1.829,1.829,0,0,1,.73-.126,1.651,1.651,0,0,1,.821.2,1.458,1.458,0,0,1,.56.541l.855-.851a2.1,2.1,0,0,0-1.019-.78,3.887,3.887,0,0,0-1.217-.19,2.784,2.784,0,0,0-1.2.235,2.51,2.51,0,0,0-.818.579,2.2,2.2,0,0,0-.464.768,2.34,2.34,0,0,0-.149.789,2.575,2.575,0,0,0,.286,1.313,2.38,2.38,0,0,0,.707.772,3.577,3.577,0,0,0,.921.45c.333.107.64.22.922.335a2.44,2.44,0,0,1,.707.433.961.961,0,0,1,.284.748,1.262,1.262,0,0,1-.144.61,1.4,1.4,0,0,1-.367.444,1.575,1.575,0,0,1-.5.27,1.7,1.7,0,0,1-.537.089,2.031,2.031,0,0,1-.916-.221,1.783,1.783,0,0,1-.727-.689Zm-58.034-7.4a3.852,3.852,0,0,0-1.278.94,4.423,4.423,0,0,0-.832,1.415,5.289,5.289,0,0,0,0,3.523,4.41,4.41,0,0,0,.832,1.412,3.831,3.831,0,0,0,1.278.941,4.1,4.1,0,0,0,3.267,0,3.813,3.813,0,0,0,1.276-.941,4.434,4.434,0,0,0,.835-1.412,5.31,5.31,0,0,0,0-3.523,4.447,4.447,0,0,0-.835-1.415,3.834,3.834,0,0,0-1.276-.94,4.087,4.087,0,0,0-3.267,0Zm-44.827,0a3.713,3.713,0,0,0-1.278.94,4.345,4.345,0,0,0-.828,1.437,5.39,5.39,0,0,0-.3,1.815,4.774,4.774,0,0,0,.275,1.587,4.472,4.472,0,0,0,.794,1.407,4.027,4.027,0,0,0,1.262,1.006,3.543,3.543,0,0,0,1.66.382,3.42,3.42,0,0,0,1.178-.185,3.809,3.809,0,0,0,.873-.43,3.174,3.174,0,0,0,.581-.49,4,4,0,0,0,.308-.377l-.888-.732a2.58,2.58,0,0,1-.855.838,2.237,2.237,0,0,1-1.172.3,2.735,2.735,0,0,1-1.218-.263,2.687,2.687,0,0,1-.91-.719A3.189,3.189,0,0,1,95.512,44a3.971,3.971,0,0,1-.2-1.269,4.244,4.244,0,0,1,.208-1.349,3.4,3.4,0,0,1,.586-1.095,2.786,2.786,0,0,1,.909-.739,2.613,2.613,0,0,1,1.191-.268,2.312,2.312,0,0,1,1.041.253,2.22,2.22,0,0,1,.834.718l.876-.732a2.85,2.85,0,0,0-1.211-.993A3.713,3.713,0,0,0,98.24,38.2,3.943,3.943,0,0,0,96.6,38.538ZM236.72,39.5h2.5v7.4h1.053V39.5h2.5V38.417H236.72Zm-8.659,3.664,1.972,3.738h1.316l-2.2-3.87a1.973,1.973,0,0,0,.794-.257,2.165,2.165,0,0,0,.6-.515,2.274,2.274,0,0,0,.378-.682,2.341,2.341,0,0,0,.132-.786,3.3,3.3,0,0,0-.111-.82,2.005,2.005,0,0,0-.389-.766,2.1,2.1,0,0,0-.762-.562,2.932,2.932,0,0,0-1.227-.222h-2.73V46.9h1.053V43.16ZM188.134,46.9h5.206V45.819h-4.154V43.1h3.684V42.022h-3.684V39.5h3.957V38.417h-5.008ZM178.4,43.16l1.972,3.738h1.316l-2.2-3.87a1.973,1.973,0,0,0,.794-.257,2.17,2.17,0,0,0,.6-.515,2.247,2.247,0,0,0,.378-.682,2.349,2.349,0,0,0,.132-.786,3.325,3.325,0,0,0-.11-.82,1.992,1.992,0,0,0-.389-.766,2.1,2.1,0,0,0-.762-.562,2.931,2.931,0,0,0-1.227-.222h-2.73V46.9h1.053V43.16Zm-23.45-3.234L159.27,46.9h1.339V38.417h-1.052v6.972h-.022l-4.275-6.972h-1.382V46.9h1.053V39.926ZM131.184,46.9h1.053V38.417h-1.053Zm-12.431-7.4h2.5v7.4h1.054V39.5h2.5V38.417h-6.052Zm-6.392,5.3.779,2.1h1.227l-3.323-8.481h-.954l-3.42,8.481H107.9l.768-2.1Zm-25.96,0,.778,2.1h1.229l-3.323-8.481h-.954L80.711,46.9h1.227l.768-2.1Zm-14.44,2.1h.988l3.058-8.481H74.854l-2.366,6.9h-.022l-2.281-6.9H68.968ZM0,49.038V45.2a56.129,56.129,0,0,0,17.449.737c8.992-.924,18.933-1.44,25.236-1.695l-3.093.552C36.131,45.306,32.4,46,29,46.68,22.673,47.946,17.526,49.2,17.526,49.2a27.718,27.718,0,0,1-6.257.945c-.244,0-.486,0-.726,0A47.657,47.657,0,0,1,0,49.038Zm213.809-3.271a2.928,2.928,0,0,1-.922-.725,3.317,3.317,0,0,1-.591-1.073,4.247,4.247,0,0,1,0-2.624,3.3,3.3,0,0,1,.591-1.072,2.912,2.912,0,0,1,.922-.725,2.834,2.834,0,0,1,2.41,0,2.909,2.909,0,0,1,.922.725,3.249,3.249,0,0,1,.591,1.072,4.191,4.191,0,0,1,0,2.624,3.263,3.263,0,0,1-.591,1.073,2.926,2.926,0,0,1-.922.725,2.844,2.844,0,0,1-2.41,0Zm-71.959,0a2.93,2.93,0,0,1-.921-.725,3.263,3.263,0,0,1-.591-1.073,4.253,4.253,0,0,1,0-2.624,3.249,3.249,0,0,1,.591-1.072,2.913,2.913,0,0,1,.921-.725,2.837,2.837,0,0,1,2.412,0,2.912,2.912,0,0,1,.922.725,3.249,3.249,0,0,1,.591,1.072,4.19,4.19,0,0,1,0,2.624,3.263,3.263,0,0,1-.591,1.073,2.928,2.928,0,0,1-.922.725,2.847,2.847,0,0,1-2.412,0ZM109.04,43.8l1.468-3.894h.023l1.445,3.894Zm-25.962,0,1.47-3.894h.023L86.016,43.8ZM16.462,39.067a1.9,1.9,0,0,1,.932-.083,1.432,1.432,0,0,0,.98-.155c.882-.5,1.695-1.1,2.587-1.577,1.093-.576,1.291-.695,2.1.247.518.6,2.365,2.175,2.932,2.724a15.959,15.959,0,0,1,2.316,2.358c.35.555-.759-.28-.8-.312a16.891,16.891,0,0,1-1.36-1.066,44.009,44.009,0,0,0-3.474-2.853c-.67-.285-.616-.043-1.148.6A6.237,6.237,0,0,0,20.015,41.3c-.2.727-.178,2.4-.912,1.022-.389-.727-.843-2.137-1.537-2.573-.261-.167-.138-.237-.384-.189-.33.064-1,1.206-1.32,1.357-1.439.668-3.922,2.326-4.488,2.444a.136.136,0,0,1-.029,0C10.89,43.366,15.833,39.294,16.462,39.067Zm210.425,3.087V39.422h1.381a3.342,3.342,0,0,1,.61.055,1.586,1.586,0,0,1,.537.2,1.04,1.04,0,0,1,.378.412,1.781,1.781,0,0,1,0,1.4,1.051,1.051,0,0,1-.378.414,1.583,1.583,0,0,1-.537.2,3.474,3.474,0,0,1-.61.054Zm-49.66,0V39.422h1.381a3.338,3.338,0,0,1,.61.055,1.586,1.586,0,0,1,.537.2,1.044,1.044,0,0,1,.378.412,1.785,1.785,0,0,1,0,1.4,1.055,1.055,0,0,1-.378.414,1.583,1.583,0,0,1-.537.2,3.471,3.471,0,0,1-.61.054ZM45.9,40.984a14.824,14.824,0,0,1-1.064-1.05c-.453-.576-.714-1.4-1.177-1.959-.5-.587-.779-.183-1.409.177a5.9,5.9,0,0,0-1.069.652c-.3.258-.69,1.119-1.02,1.281-.641.323-.709-.667-.926-1.227-.562.387-1.522,1.75-2.113,1.615-.423-.1-.951-1.093-1.222-1.513a12.765,12.765,0,0,0-1.1-1.6c-.379-.425-.759-.861-1.142-1.3a22.438,22.438,0,0,0-3.331-3.209c.044,1.281-.074,2.127.591,3.144.123.188.823.985.419,1.125-.232.076-1.148-1.179-1.355-1.4a5.19,5.19,0,0,1-.68-.84,7.659,7.659,0,0,1-.566-1.728c-.039-.043-.675-1.765-.887-2.116-.508-.861-1.064-1.68-1.587-2.525-.062-.1-.126-.21-.193-.324a12.036,12.036,0,0,0-1.54-2.33c-.4-.382-.848-.274-1.281-.533-.488-.291-.734-.953-1.034-1.459-.207-.344-.872-1.577-1.36-1.362a14.4,14.4,0,0,0-.906,2.062c-.059.127-.109.248-.158.368a11.217,11.217,0,0,0-.66,3.066c-.113.845-.212.484-.6.98a11.1,11.1,0,0,0-.689,1.535,10.6,10.6,0,0,1-.991,1.248,29.808,29.808,0,0,0-2.488,3.569c-.246.463-.286.98-.778.851-.389-.1-.764-.673-1-1.007-.793-1.131-1.222-1.266-2.034-2.375a12.509,12.509,0,0,0-1.183-1.782c-.256-.237-.911-1.227-1.123-1.383a6.863,6.863,0,0,0-.852.748A6.691,6.691,0,0,0,6.994,31.4a4.714,4.714,0,0,0-.109,1.276,3.248,3.248,0,0,0,.33.9c.32.711-.143,1.561-.493,1.276-.37-.307-.729-1.34-1.074-1-.2.194-.8,1.173-.966,1.416a7.153,7.153,0,0,1-.842.888c-.354.324-.695-.361-.887-.694a13.865,13.865,0,0,1-1.537,1.944,4.948,4.948,0,0,1-1.336,1.34c-.03.015-.052.032-.081.048V36.9c1-1.51,2.264-2.9,3.293-4.369.423-.614,2.507-2.815,2.98-3.4.257-.323.961-1.04,1.336-1.545.4-.561,1.325.1,1.463.242a3.171,3.171,0,0,0,.621.549c.951.528,1.33-.587,1.936-.78.779-.253,1.192.005,1.931-.517a9.325,9.325,0,0,0,1.227-.975,5.416,5.416,0,0,1,1.36-1.141,4.893,4.893,0,0,0,.744-.49c.542-.416,1.086-.818,1.629-1.226.238-.179.476-.355.712-.54.488-.388,1.246-1.26,1.872-1.27.424-.011.975.878,1.228,1.217.359.474.7.958,1.083,1.411.463.56.916.517,1.429.9a5.135,5.135,0,0,1,1.394,1.906,13.66,13.66,0,0,0,.871,1.362c.445.629.917,1.242,1.342,1.858a6.2,6.2,0,0,0,.769,1.055,9.014,9.014,0,0,0,1.488.8,9.35,9.35,0,0,1,2.832,2.977c.163.242.335.479.513.7.724.883,1.616,1.512,2.739,1.017a6.109,6.109,0,0,0,2.178-1.485,25.111,25.111,0,0,1,4.282-3.214c.68-.447,1.261-1.029,1.931-1.453.724-.458,1.3-.948,1.552-.9a6.359,6.359,0,0,1,1.606,1.631c.719,1.055,1.311,1.475,1.971,2.568a31.827,31.827,0,0,0,3.124,4.383v1.862c-1.452-1.767-2.754-3.5-3.242-4.156-.389-.528-.847-.963-1.231-1.507-.434-.619-.828-1.621-1.562-1.788a1.148,1.148,0,0,0-.337-.006.958.958,0,0,1-.427-.031c-.221-.075-.477-.506-.695-.522-.556-.037-.606.759-.867,1.346a4.78,4.78,0,0,0-.592,1.519,5.051,5.051,0,0,0,.276,1.443c.31,1.152.985,1.954,1.345,3.063A8.011,8.011,0,0,1,46.8,41.49c-.042.174-.106.241-.182.241C46.393,41.731,46.072,41.164,45.9,40.984Zm5.218-7.765a10.655,10.655,0,0,0-1.163-1.554,11.228,11.228,0,0,1-.841-1.067c-.011-.015-1.356-1.872-2.211-2.04a1.1,1.1,0,0,0-.207-.02,2.7,2.7,0,0,0-1.425.662c-.183.125-.373.256-.573.383a11.534,11.534,0,0,0-1.083.808c-.3.239-.574.465-.863.655l-.442.289a23.255,23.255,0,0,0-4,3.055,5.191,5.191,0,0,1-1.882,1.281,1.025,1.025,0,0,1-.417.1c-.37,0-.773-.272-1.234-.832-.161-.2-.316-.418-.459-.633a10.254,10.254,0,0,0-3.137-3.272,5.483,5.483,0,0,0-.732-.363,2.317,2.317,0,0,1-.611-.329,3.29,3.29,0,0,1-.406-.557c-.071-.111-.141-.22-.21-.322-.139-.2-.282-.4-.425-.6,5.433-.749,9.635-5.811,9.635-11.951,0-6.656-4.938-12.053-11.03-12.053s-11.03,5.4-11.03,12.053A12.875,12.875,0,0,0,17.679,22.6l-.231.172c-.364.273-.741.555-1.113.84a3.959,3.959,0,0,1-.631.415,5.728,5.728,0,0,0-1.419,1.149l-.155.157a7.617,7.617,0,0,1-.985.784l-.115.082a1.123,1.123,0,0,1-.691.208,4.062,4.062,0,0,0-.986.18,2.437,2.437,0,0,0-.937.638,2.65,2.65,0,0,1-.256.228l-.03-.016a1.75,1.75,0,0,1-.266-.245c-.049-.051-.1-.1-.147-.149a2.712,2.712,0,0,0-1.661-.734,1.455,1.455,0,0,0-1.2.617c-.2.263-.53.632-.8.929-.209.231-.389.43-.512.585-.165.2-.613.7-1.087,1.223C3.495,30.72,2.794,31.5,2.522,31.9c-.449.642-.944,1.268-1.469,1.929C.7,34.267.347,34.719,0,35.181V.234H53.433V36.614A35.975,35.975,0,0,1,51.118,33.218Zm82.09-6.662a15.081,15.081,0,0,1-4.651-2.541,12.71,12.71,0,0,1-4.75-10.273,12.673,12.673,0,0,1,4.815-10.237,14.11,14.11,0,0,1,4.75-2.612A18.975,18.975,0,0,1,139.333,0a16.245,16.245,0,0,1,7.124,1.5,16.528,16.528,0,0,1,5.716,4.76l-3.668,2a12.513,12.513,0,0,0-4.111-3.22A12.329,12.329,0,0,0,139,3.937a13.229,13.229,0,0,0-4.175.644,10.888,10.888,0,0,0-3.391,1.791,9.063,9.063,0,0,0-3.537,7.372,9.774,9.774,0,0,0,.787,3.954,8.854,8.854,0,0,0,2.243,3.113,10.206,10.206,0,0,0,3.5,2.023,13.792,13.792,0,0,0,4.568.717,11.493,11.493,0,0,0,6.469-1.72,9.525,9.525,0,0,0,3.751-4.974H138.187V12.992h15.951v.392a14.839,14.839,0,0,1-1.082,5.749,12.834,12.834,0,0,1-3.045,4.463,13.645,13.645,0,0,1-4.767,2.875A18.2,18.2,0,0,1,139,27.488,17.619,17.619,0,0,1,133.208,26.557Zm73.4-.019a14.8,14.8,0,0,1-4.651-2.522,12.684,12.684,0,0,1-4.75-10.309A12.67,12.67,0,0,1,202.024,3.47,14.378,14.378,0,0,1,206.657.914,18.769,18.769,0,0,1,220.25,1.7a15.385,15.385,0,0,1,5.813,5.028l-3.569,1.395a11.245,11.245,0,0,0-4.341-3.185,15.247,15.247,0,0,0-5.749-1,13.4,13.4,0,0,0-4.535.733,10.5,10.5,0,0,0-3.505,2.042,9.134,9.134,0,0,0-2.261,3.1,9.445,9.445,0,0,0-.8,3.9,9.876,9.876,0,0,0,.787,3.991,8.615,8.615,0,0,0,2.259,3.1,10.508,10.508,0,0,0,3.571,2,14.537,14.537,0,0,0,4.715.716,14.421,14.421,0,0,0,5.6-1,11.382,11.382,0,0,0,4.291-3.256L225.9,21.3a15.343,15.343,0,0,1-5.829,4.723,18.881,18.881,0,0,1-7.667,1.433A17.889,17.889,0,0,1,206.608,26.538Zm-20.242.2-2.75-5.8H167.664l-2.75,5.8h-4.291L173.167.823h4.945l12.545,25.913ZM169.6,17.072h12.086L175.656,4.545Zm75.495,9.663V16.5L232.121.824H237l10.088,12.1L257.113.824h4.88L249.023,16.5V26.735Zm-154.07,0V.823h23.91V4.688H94.953v6.694H108.84v3.865H94.953V22.87h20.9v3.865Zm-30.133,0V.859h3.931V22.87H83.129v3.865Z" fill="#fff"/></svg>